<?xml version="1.0" encoding="UTF-8" standalone="no"?>
<!-- Created with Inkscape (http://www.inkscape.org/) -->

<svg
   xmlns:dc="http://purl.org/dc/elements/1.1/"
   xmlns:cc="http://creativecommons.org/ns#"
   xmlns:rdf="http://www.w3.org/1999/02/22-rdf-syntax-ns#"
   xmlns:svg="http://www.w3.org/2000/svg"
   xmlns="http://www.w3.org/2000/svg"
   xmlns:xlink="http://www.w3.org/1999/xlink"
   xmlns:sodipodi="http://sodipodi.sourceforge.net/DTD/sodipodi-0.dtd"
   xmlns:inkscape="http://www.inkscape.org/namespaces/inkscape"
   width="32"
   height="32"
   id="svg2424"
   sodipodi:version="0.32"
   inkscape:version="0.92.2 2405546, 2018-03-11"
   version="1.0"
   sodipodi:docname="batteries1.svg"
   inkscape:output_extension="org.inkscape.output.svg.inkscape"
   inkscape:export-filename="/home/thayer/archlinux-logo-contest/archer-full-detail.png"
   inkscape:export-xdpi="90"
   inkscape:export-ydpi="90">
  <defs
     id="defs2426">
    <linearGradient
       gradientUnits="userSpaceOnUse"
       id="path1082_2_"
       y2="129.3468"
       x2="112.49853"
       y1="6.1372099"
       x1="112.49854"
       gradientTransform="translate(287,-83)">
      <stop
         id="stop193"
         offset="0"
         style="stop-color:#ffffff;stop-opacity:0" />
      <stop
         id="stop195"
         offset="1"
         style="stop-color:#ffffff;stop-opacity:0.27450982;" />
      <midPointStop
         id="midPointStop197"
         style="stop-color:#FFFFFF"
         offset="0" />
      <midPointStop
         id="midPointStop199"
         style="stop-color:#FFFFFF"
         offset="0.5" />
      <midPointStop
         id="midPointStop201"
         style="stop-color:#000000"
         offset="1" />
    </linearGradient>
    <linearGradient
       id="linearGradient3388">
      <stop
         style="stop-color:#000000;stop-opacity:0;"
         offset="0"
         id="stop3390" />
      <stop
         style="stop-color:#000000;stop-opacity:0.37113401;"
         offset="1"
         id="stop3392" />
    </linearGradient>
    <linearGradient
       inkscape:collect="always"
       id="linearGradient4346">
      <stop
         style="stop-color:#00bdec;stop-opacity:1"
         offset="0"
         id="stop4348" />
      <stop
         style="stop-color:#40bfde;stop-opacity:1"
         offset="1"
         id="stop4350" />
    </linearGradient>
    <linearGradient
       inkscape:collect="always"
       xlink:href="#linearGradient4346"
       id="linearGradient4352"
       x1="400.6142"
       y1="634.15063"
       x2="616.48553"
       y2="666.97791"
       gradientUnits="userSpaceOnUse" />
    <linearGradient
       inkscape:collect="always"
       id="linearGradient5323">
      <stop
         style="stop-color:#6e6e6e;stop-opacity:1"
         offset="0"
         id="stop5325" />
      <stop
         style="stop-color:#4d4d4d;stop-opacity:1"
         offset="1"
         id="stop5327" />
    </linearGradient>
    <linearGradient
       inkscape:collect="always"
       xlink:href="#linearGradient5323"
       id="linearGradient5329"
       x1="291.83591"
       y1="238.08237"
       x2="650.81366"
       y2="348.96875"
       gradientUnits="userSpaceOnUse" />
    <linearGradient
       inkscape:collect="always"
       xlink:href="#path1082_2_"
       id="linearGradient2216"
       gradientUnits="userSpaceOnUse"
       gradientTransform="matrix(-0.3937741,0,0,0.393752,978.34967,416.9815)"
       x1="541.33502"
       y1="104.50665"
       x2="606.91248"
       y2="303.14029" />
  </defs>
  <sodipodi:namedview
     id="base"
     pagecolor="#ffffff"
     bordercolor="#666666"
     borderopacity="1.0"
     gridtolerance="10000"
     guidetolerance="10"
     objecttolerance="10"
     inkscape:pageopacity="0.0"
     inkscape:pageshadow="2"
     inkscape:zoom="7.9162421"
     inkscape:cx="90.257443"
     inkscape:cy="35.040077"
     inkscape:document-units="px"
     inkscape:current-layer="g2210"
     inkscape:window-width="1920"
     inkscape:window-height="997"
     inkscape:window-x="0"
     inkscape:window-y="40"
     showgrid="false"
     inkscape:window-maximized="1"
     showguides="true"
     inkscape:guide-bbox="true">
    <sodipodi:guide
       position="-9.1314141,0"
       orientation="0,1"
       id="guide1583"
       inkscape:locked="false" />
    <sodipodi:guide
       position="-20.025031,64.080099"
       orientation="0,1"
       id="guide1585"
       inkscape:locked="false" />
    <sodipodi:guide
       position="-36.507967,16"
       orientation="0,1"
       id="guide858"
       inkscape:locked="false"
       inkscape:label=""
       inkscape:color="rgb(0,0,255)" />
    <sodipodi:guide
       position="-10.397418,2"
       orientation="0,1"
       id="guide878"
       inkscape:locked="false"
       inkscape:label=""
       inkscape:color="rgb(0,0,255)" />
    <sodipodi:guide
       position="-10.901535,28"
       orientation="0,1"
       id="guide880"
       inkscape:locked="false"
       inkscape:label=""
       inkscape:color="rgb(0,0,255)" />
    <sodipodi:guide
       position="-12.665945,4"
       orientation="0,1"
       id="guide882"
       inkscape:locked="false"
       inkscape:label=""
       inkscape:color="rgb(0,0,255)" />
    <sodipodi:guide
       position="6,-7.8768316"
       orientation="1,0"
       id="guide884"
       inkscape:locked="false"
       inkscape:label=""
       inkscape:color="rgb(0,0,255)" />
    <sodipodi:guide
       position="26,-1.449337"
       orientation="1,0"
       id="guide886"
       inkscape:locked="false"
       inkscape:label=""
       inkscape:color="rgb(0,0,255)" />
    <sodipodi:guide
       position="-5.986392,30"
       orientation="0,1"
       id="guide888"
       inkscape:locked="false"
       inkscape:label=""
       inkscape:color="rgb(0,0,255)" />
    <sodipodi:guide
       position="11,35.729308"
       orientation="1,0"
       id="guide890"
       inkscape:locked="false"
       inkscape:label=""
       inkscape:color="rgb(0,0,255)" />
    <sodipodi:guide
       position="21,13.67418"
       orientation="1,0"
       id="guide892"
       inkscape:locked="false"
       inkscape:label=""
       inkscape:color="rgb(0,0,255)" />
    <sodipodi:guide
       position="19,-9.3891833"
       orientation="1,0"
       id="guide894"
       inkscape:locked="false"
       inkscape:label=""
       inkscape:color="rgb(0,0,255)" />
    <sodipodi:guide
       position="13,-6.4274946"
       orientation="1,0"
       id="guide896"
       inkscape:locked="false"
       inkscape:label=""
       inkscape:color="rgb(0,0,255)" />
    <sodipodi:guide
       position="-5.6083041,26"
       orientation="0,1"
       id="guide898"
       inkscape:locked="false"
       inkscape:label=""
       inkscape:color="rgb(0,0,255)" />
    <sodipodi:guide
       position="-4.2219817,24"
       orientation="0,1"
       id="guide900"
       inkscape:locked="false"
       inkscape:label=""
       inkscape:color="rgb(0,0,255)" />
    <sodipodi:guide
       position="8,-8.8850661"
       orientation="1,0"
       id="guide902"
       inkscape:locked="false"
       inkscape:label=""
       inkscape:color="rgb(0,0,255)" />
    <sodipodi:guide
       position="24,-5.6713188"
       orientation="1,0"
       id="guide904"
       inkscape:locked="false"
       inkscape:label=""
       inkscape:color="rgb(0,0,255)" />
    <sodipodi:guide
       position="206.18617,22"
       orientation="0,1"
       id="guide998"
       inkscape:locked="false"
       inkscape:label=""
       inkscape:color="rgb(0,0,255)" />
    <sodipodi:guide
       position="207.57814,10"
       orientation="0,1"
       id="guide1057"
       inkscape:locked="false"
       inkscape:label=""
       inkscape:color="rgb(0,0,255)" />
    <sodipodi:guide
       position="0,54.808341"
       orientation="1,0"
       id="guide1005"
       inkscape:locked="false"
       inkscape:label=""
       inkscape:color="rgb(0,0,255)" />
  </sodipodi:namedview>
  <metadata
     id="metadata2429">
    <rdf:RDF>
      <cc:Work
         rdf:about="">
        <dc:format>image/svg+xml</dc:format>
        <dc:type
           rdf:resource="http://purl.org/dc/dcmitype/StillImage" />
        <dc:title />
      </cc:Work>
    </rdf:RDF>
  </metadata>
  <g
     inkscape:label="Layer 1"
     inkscape:groupmode="layer"
     id="layer1"
     transform="translate(-269.51781,-297.60124)">
    <g
       id="g2424"
       transform="matrix(1.3473684,0,0,1.3473684,-632.88236,-513.34366)">
      <g
         id="g2210"
         transform="matrix(0.25,0,0,0.25,502.3126,469.21738)">
        <rect
           style="fill:#1a1a1a;fill-opacity:1;stroke:none;stroke-width:5.32637072;stroke-linecap:butt;stroke-linejoin:round;stroke-miterlimit:4;stroke-dasharray:none;stroke-opacity:1"
           id="rect896-6-3-6-0-3"
           width="95"
           height="95"
           x="669.75012"
           y="530.62317" />
        <path
           id="path878-5-1-2-7-6-6"
           style="opacity:1;fill:#ececec;fill-opacity:1;stroke:none;stroke-width:4.80882311"
           d="m 708.3439,542.49819 h 17.8125 v 11.875 h 14.84375 v 59.375 l -47.22836,0 v -59.375 l 14.57211,0 z m -5.9375,-5.9375 v 11.875 h -14.84375 v 71.24998 h 59.375 V 548.43569 H 732.0939 v -11.875 z"
           inkscape:connector-curvature="0"
           sodipodi:nodetypes="cccccccccccccccccc" />
        <rect
           style="fill:#1a1a1a;fill-opacity:1;stroke:none;stroke-width:5.32637072;stroke-linecap:butt;stroke-linejoin:round;stroke-miterlimit:4;stroke-dasharray:none;stroke-opacity:1"
           id="rect896-6-3-6-0-3-5"
           width="95"
           height="95"
           x="1110.6538"
           y="530.62317" />
        <path
           style="opacity:1;fill:#ececec;fill-opacity:1;stroke:none;stroke-width:1.61981404"
           d="M 159.51562 2 L 159.51562 6 L 154.51562 6 L 154.51562 30 L 174.51562 30 L 174.51562 6 L 169.51562 6 L 169.51562 2 L 159.51562 2 z M 166.85547 10 L 165.68555 16.666016 L 169.19531 16.666016 L 162.17383 26 L 163.3457 19.333984 L 159.83398 19.333984 L 166.85547 10 z "
           transform="matrix(2.96875,0,0,2.96875,669.75015,530.62319)"
           id="path878-5-1-2-7-6-6-6" />
        <rect
           style="fill:#1a1a1a;fill-opacity:1;stroke:none;stroke-width:5.32637072;stroke-linecap:butt;stroke-linejoin:round;stroke-miterlimit:4;stroke-dasharray:none;stroke-opacity:1"
           id="rect896-6-3-6-0-3-2"
           width="95"
           height="95"
           x="1003.733"
           y="530.62317" />
        <path
           style="opacity:1;fill:#ececec;fill-opacity:1;stroke:none;stroke-width:1.61981404"
           d="M 123.5 2 L 123.5 6 L 118.5 6 L 118.5 30 L 138.5 30 L 138.5 6 L 133.5 6 L 133.5 2 L 123.5 2 z M 125.5 4 L 131.5 4 L 131.5 8 L 136.5 8 L 136.5 10 L 130.8418 10 L 129.67188 16.666016 L 133.18164 16.666016 L 126.16016 26 L 127.33203 19.333984 L 123.82031 19.333984 L 130.8418 10 L 120.5918 10 L 120.5918 8 L 125.5 8 L 125.5 4 z "
           transform="matrix(2.96875,0,0,2.96875,669.75015,530.62319)"
           id="path878-5-1-2-7-6-6-1" />
        <rect
           style="fill:#1a1a1a;fill-opacity:1;stroke:none;stroke-width:5.32637072;stroke-linecap:butt;stroke-linejoin:round;stroke-miterlimit:4;stroke-dasharray:none;stroke-opacity:1"
           id="rect896-6-3-6-0-3-2-2"
           width="95"
           height="95"
           x="896.80658"
           y="530.62317" />
        <path
           style="opacity:1;fill:#ececec;fill-opacity:1;stroke:none;stroke-width:1.61981404"
           d="M 87.482422 2 L 87.482422 6 L 82.482422 6 L 82.482422 30 L 102.48242 30 L 102.48242 6 L 97.482422 6 L 97.482422 2 L 87.482422 2 z M 89.482422 4 L 95.482422 4 L 95.482422 8 L 100.48242 8 L 100.48242 16 L 93.769531 16 L 93.652344 16.666016 L 97.162109 16.666016 L 90.140625 26 L 91.3125 19.333984 L 87.800781 19.333984 L 90.308594 16 L 84.574219 16 L 84.574219 8 L 89.482422 8 L 89.482422 4 z "
           transform="matrix(2.96875,0,0,2.96875,669.75015,530.62319)"
           id="path878-5-1-2-7-6-6-1-0" />
        <rect
           style="fill:#1a1a1a;fill-opacity:1;stroke:none;stroke-width:5.32637072;stroke-linecap:butt;stroke-linejoin:round;stroke-miterlimit:4;stroke-dasharray:none;stroke-opacity:1"
           id="rect896-6-3-6-0-3-2-2-9"
           width="95"
           height="95"
           x="785.74774"
           y="530.62305" />
        <path
           style="opacity:1;fill:#ececec;fill-opacity:1;stroke:none;stroke-width:1.61981404"
           d="M 50.072266 2 L 50.072266 6 L 45.072266 6 L 45.072266 30 L 65.072266 30 L 65.072266 6 L 60.072266 6 L 60.072266 2 L 50.072266 2 z M 52.072266 4 L 58.072266 4 L 58.072266 8 L 63.072266 8 L 63.072266 22 L 55.742188 22 L 52.732422 26 L 53.435547 22 L 47.164062 22 L 47.164062 8 L 52.072266 8 L 52.072266 4 z "
           transform="matrix(2.96875,0,0,2.96875,669.75015,530.62319)"
           id="path878-5-1-2-7-6-6-1-0-6" />
        <path
           style="opacity:1;fill:#ececec;fill-opacity:1;stroke:none;stroke-width:10.55391121"
           d="m 724.19829,560.31067 -3.47244,19.79138 h 10.42061 l -20.8445,27.70862 3.47584,-19.79136 h -10.42401 z"
           id="path878-5-36-6-6-8-0"
           inkscape:connector-curvature="0" />
        <rect
           style="fill:#1a1a1a;fill-opacity:1;stroke:none;stroke-width:5.32637072;stroke-linecap:butt;stroke-linejoin:round;stroke-miterlimit:4;stroke-dasharray:none;stroke-opacity:1"
           id="rect896-6-3-6-0-3-3"
           width="95"
           height="95"
           x="669.75006"
           y="417.57288" />
        <path
           id="path878-5-1-2-7-6-6-5"
           style="opacity:1;fill:#ececec;fill-opacity:1;stroke:none;stroke-width:4.80882311"
           d="m 708.3439,429.44789 h 17.8125 v 11.875 h 14.84375 v 59.375 h -47.22836 v -59.375 h 14.57211 z m -5.9375,-5.9375 v 11.875 h -14.84375 v 71.24998 h 59.375 V 435.38539 H 732.0939 v -11.875 z"
           inkscape:connector-curvature="0"
           sodipodi:nodetypes="cccccccccccccccccc" />
        <rect
           style="fill:#1a1a1a;fill-opacity:1;stroke:none;stroke-width:5.32637072;stroke-linecap:butt;stroke-linejoin:round;stroke-miterlimit:4;stroke-dasharray:none;stroke-opacity:1"
           id="rect896-6-3-6-0-3-5-6"
           width="95"
           height="95"
           x="1110.6538"
           y="417.57288" />
        <path
           style="opacity:1;fill:#ececec;fill-opacity:1;stroke:none;stroke-width:4.80882311"
           d="m 1143.3101,423.51041 v 11.875 h -14.8437 v 71.24998 h 59.375 v -71.24998 h -14.8438 v -11.875 z"
           id="path878-5-1-2-7-6-6-6-2"
           inkscape:connector-curvature="0" />
        <rect
           style="fill:#1a1a1a;fill-opacity:1;stroke:none;stroke-width:5.32637072;stroke-linecap:butt;stroke-linejoin:round;stroke-miterlimit:4;stroke-dasharray:none;stroke-opacity:1"
           id="rect896-6-3-6-0-3-2-9"
           width="95"
           height="95"
           x="1003.7328"
           y="417.57288" />
        <path
           style="opacity:1;fill:#ececec;fill-opacity:1;stroke:none;stroke-width:1.61981404"
           d="M 123.5 -36.080078 L 123.5 -32.080078 L 118.5 -32.080078 L 118.5 -8.0800781 L 138.5 -8.0800781 L 138.5 -32.080078 L 133.5 -32.080078 L 133.5 -36.080078 L 123.5 -36.080078 z M 125.5 -34.080078 L 131.5 -34.080078 L 131.5 -30.080078 L 136.5 -30.080078 L 136.5 -28.080078 L 120.5918 -28.080078 L 120.5918 -30.080078 L 125.5 -30.080078 L 125.5 -34.080078 z "
           transform="matrix(2.96875,0,0,2.96875,669.75015,530.62319)"
           id="path996-1" />
        <rect
           style="fill:#1a1a1a;fill-opacity:1;stroke:none;stroke-width:5.32637072;stroke-linecap:butt;stroke-linejoin:round;stroke-miterlimit:4;stroke-dasharray:none;stroke-opacity:1"
           id="rect896-6-3-6-0-3-2-2-7"
           width="95"
           height="95"
           x="896.80658"
           y="417.57288" />
        <path
           style="opacity:1;fill:#ececec;fill-opacity:1;stroke:none;stroke-width:1.61981404"
           d="M 87.482422 -36.080078 L 87.482422 -32.080078 L 82.482422 -32.080078 L 82.482422 -8.0800781 L 102.48242 -8.0800781 L 102.48242 -32.080078 L 97.482422 -32.080078 L 97.482422 -36.080078 L 87.482422 -36.080078 z M 89.482422 -34.080078 L 95.482422 -34.080078 L 95.482422 -30.080078 L 100.48242 -30.080078 L 100.48242 -22.080078 L 84.574219 -22.080078 L 84.574219 -30.080078 L 89.482422 -30.080078 L 89.482422 -34.080078 z "
           transform="matrix(2.96875,0,0,2.96875,669.75015,530.62319)"
           id="path996-7-0" />
        <rect
           style="fill:#1a1a1a;fill-opacity:1;stroke:none;stroke-width:5.32637072;stroke-linecap:butt;stroke-linejoin:round;stroke-miterlimit:4;stroke-dasharray:none;stroke-opacity:1"
           id="rect896-6-3-6-0-3-2-2-9-3"
           width="95"
           height="95"
           x="785.74768"
           y="417.57275" />
        <path
           style="opacity:1;fill:#ececec;fill-opacity:1;stroke:none;stroke-width:1.61981404"
           d="M 50.072266 -36.080078 L 50.072266 -32.080078 L 45.072266 -32.080078 L 45.072266 -8.0800781 L 65.072266 -8.0800781 L 65.072266 -32.080078 L 60.072266 -32.080078 L 60.072266 -36.080078 L 50.072266 -36.080078 z M 52.072266 -34.080078 L 58.072266 -34.080078 L 58.072266 -30.080078 L 63.072266 -30.080078 L 63.072266 -16.080078 L 47.164062 -16.080078 L 47.164062 -30.080078 L 52.072266 -30.080078 L 52.072266 -34.080078 z "
           transform="matrix(2.96875,0,0,2.96875,669.75015,530.62319)"
           id="path996-7-3-6" />
        <g
           id="g1199"
           transform="translate(-3.5177401,-87.44693)">
          <path
             inkscape:connector-curvature="0"
             id="path878-5-36-6-6-8-0-3-9-0"
             d="m 843.71727,647.75764 -20.83923,27.71027 h 10.41962 l -1.3916,7.91473 h 6.85363 l 11.90979,-15.83527 h -10.41961 z"
             style="opacity:1;fill:#ececec;fill-opacity:1;stroke:none;stroke-width:10.55391026" />
        </g>
        <g
           id="g1195"
           style="fill:#ececec;fill-opacity:1"
           transform="translate(12.253285,-86.23675)">
          <path
             inkscape:connector-curvature="0"
             id="path878-5-36-6-6-8-0-3-6-5"
             d="m 939.00225,646.54751 -13.39996,17.8125 h 10.27464 z"
             style="opacity:1;fill:#ececec;fill-opacity:1;stroke:none;stroke-width:10.55391026" />
        </g>
      </g>
    </g>
  </g>
</svg>
