<?xml version="1.0" encoding="UTF-8" standalone="no"?>
<!-- Created with Inkscape (http://www.inkscape.org/) -->

<svg
   xmlns:dc="http://purl.org/dc/elements/1.1/"
   xmlns:cc="http://creativecommons.org/ns#"
   xmlns:rdf="http://www.w3.org/1999/02/22-rdf-syntax-ns#"
   xmlns:svg="http://www.w3.org/2000/svg"
   xmlns="http://www.w3.org/2000/svg"
   xmlns:xlink="http://www.w3.org/1999/xlink"
   xmlns:sodipodi="http://sodipodi.sourceforge.net/DTD/sodipodi-0.dtd"
   xmlns:inkscape="http://www.inkscape.org/namespaces/inkscape"
   width="64"
   height="64"
   id="svg2424"
   sodipodi:version="0.32"
   inkscape:version="0.92.2 2405546, 2018-03-11"
   version="1.0"
   sodipodi:docname="batteries1.svg"
   inkscape:output_extension="org.inkscape.output.svg.inkscape"
   inkscape:export-filename="/home/thayer/archlinux-logo-contest/archer-full-detail.png"
   inkscape:export-xdpi="90"
   inkscape:export-ydpi="90">
  <defs
     id="defs2426">
    <linearGradient
       gradientUnits="userSpaceOnUse"
       id="path1082_2_"
       y2="129.3468"
       x2="112.49853"
       y1="6.1372099"
       x1="112.49854"
       gradientTransform="translate(287,-83)">
      <stop
         id="stop193"
         offset="0"
         style="stop-color:#ffffff;stop-opacity:0" />
      <stop
         id="stop195"
         offset="1"
         style="stop-color:#ffffff;stop-opacity:0.27450982;" />
      <midPointStop
         id="midPointStop197"
         style="stop-color:#FFFFFF"
         offset="0" />
      <midPointStop
         id="midPointStop199"
         style="stop-color:#FFFFFF"
         offset="0.5" />
      <midPointStop
         id="midPointStop201"
         style="stop-color:#000000"
         offset="1" />
    </linearGradient>
    <linearGradient
       id="linearGradient3388">
      <stop
         style="stop-color:#000000;stop-opacity:0;"
         offset="0"
         id="stop3390" />
      <stop
         style="stop-color:#000000;stop-opacity:0.37113401;"
         offset="1"
         id="stop3392" />
    </linearGradient>
    <linearGradient
       inkscape:collect="always"
       id="linearGradient4346">
      <stop
         style="stop-color:#00bdec;stop-opacity:1"
         offset="0"
         id="stop4348" />
      <stop
         style="stop-color:#40bfde;stop-opacity:1"
         offset="1"
         id="stop4350" />
    </linearGradient>
    <linearGradient
       inkscape:collect="always"
       xlink:href="#linearGradient4346"
       id="linearGradient4352"
       x1="400.6142"
       y1="634.15063"
       x2="616.48553"
       y2="666.97791"
       gradientUnits="userSpaceOnUse" />
    <linearGradient
       inkscape:collect="always"
       id="linearGradient5323">
      <stop
         style="stop-color:#6e6e6e;stop-opacity:1"
         offset="0"
         id="stop5325" />
      <stop
         style="stop-color:#4d4d4d;stop-opacity:1"
         offset="1"
         id="stop5327" />
    </linearGradient>
    <linearGradient
       inkscape:collect="always"
       xlink:href="#linearGradient5323"
       id="linearGradient5329"
       x1="291.83591"
       y1="238.08237"
       x2="650.81366"
       y2="348.96875"
       gradientUnits="userSpaceOnUse" />
    <linearGradient
       inkscape:collect="always"
       xlink:href="#path1082_2_"
       id="linearGradient2216"
       gradientUnits="userSpaceOnUse"
       gradientTransform="matrix(-0.3937741,0,0,0.393752,978.34967,416.9815)"
       x1="541.33502"
       y1="104.50665"
       x2="606.91248"
       y2="303.14029" />
  </defs>
  <sodipodi:namedview
     id="base"
     pagecolor="#ffffff"
     bordercolor="#666666"
     borderopacity="1.0"
     gridtolerance="10000"
     guidetolerance="10"
     objecttolerance="10"
     inkscape:pageopacity="0.0"
     inkscape:pageshadow="2"
     inkscape:zoom="4.085231"
     inkscape:cx="174.8983"
     inkscape:cy="73.95221"
     inkscape:document-units="px"
     inkscape:current-layer="g2210"
     inkscape:window-width="1920"
     inkscape:window-height="999"
     inkscape:window-x="0"
     inkscape:window-y="32"
     showgrid="false"
     inkscape:window-maximized="1"
     showguides="true"
     inkscape:guide-bbox="true">
    <sodipodi:guide
       position="-9.1314141,0"
       orientation="0,1"
       id="guide1583"
       inkscape:locked="false" />
    <sodipodi:guide
       position="-20.025031,64.080099"
       orientation="0,1"
       id="guide1585"
       inkscape:locked="false" />
    <sodipodi:guide
       position="0,54.808341"
       orientation="1,0"
       id="guide1005"
       inkscape:locked="false"
       inkscape:label=""
       inkscape:color="rgb(0,0,255)" />
  </sodipodi:namedview>
  <metadata
     id="metadata2429">
    <rdf:RDF>
      <cc:Work
         rdf:about="">
        <dc:format>image/svg+xml</dc:format>
        <dc:type
           rdf:resource="http://purl.org/dc/dcmitype/StillImage" />
        <dc:title></dc:title>
      </cc:Work>
    </rdf:RDF>
  </metadata>
  <g
     inkscape:label="Layer 1"
     inkscape:groupmode="layer"
     id="layer1"
     transform="translate(-269.51781,-265.60124)">
    <g
       id="g2424"
       transform="matrix(1.3473684,0,0,1.3473684,-632.88236,-513.34366)">
      <g
         id="g2210"
         transform="matrix(0.25,0,0,0.25,502.3126,469.21738)">
        <rect
           style="opacity:1;fill:#1a1a1a;fill-opacity:1;fill-rule:nonzero;stroke:none;stroke-width:29.54486465;stroke-linejoin:miter;stroke-miterlimit:4;stroke-dasharray:none;stroke-opacity:1"
           id="rect1567"
           width="190"
           height="190"
           x="669.75012"
           y="435.62317" />
        <path
           style="opacity:1;fill:#ffffff;fill-opacity:1;stroke:none;stroke-width:3.70243311"
           d="M 20.572266 0 L 20.572266 9.1425781 L 9.1425781 9.1425781 L 9.1425781 64 L 54.857422 64 L 54.857422 9.1425781 L 43.427734 9.1425781 L 43.427734 0 L 20.572266 0 z M 27.142578 6.5722656 L 36.857422 6.5722656 L 36.857422 15.714844 L 48.285156 15.714844 L 48.285156 57.427734 L 15.923828 57.427734 L 15.923828 15.714844 L 27.142578 15.714844 L 27.142578 6.5722656 z M 37.820312 17.072266 L 20.671875 39.869141 L 29.248047 39.869141 L 26.388672 56.154297 L 43.537109 33.355469 L 34.964844 33.355469 L 37.820312 17.072266 z "
           id="path878-5-1-2-7-6-6-5"
           transform="matrix(2.96875,0,0,2.96875,669.75015,435.62319)" />
        <rect
           style="opacity:1;fill:#1a1a1a;fill-opacity:1;fill-rule:nonzero;stroke:none;stroke-width:29.54486275;stroke-linejoin:miter;stroke-miterlimit:4;stroke-dasharray:none;stroke-opacity:1"
           id="rect1567-5"
           width="190"
           height="190"
           x="880.23669"
           y="435.6232" />
        <path
           style="opacity:1;fill:#ffffff;fill-opacity:1;stroke:none;stroke-width:3.70243311"
           d="M 91.472656 0 L 91.472656 9.1425781 L 80.042969 9.1425781 L 80.042969 64 L 125.75781 64 L 125.75781 9.1425781 L 114.33008 9.1425781 L 114.33008 0 L 91.472656 0 z M 98.042969 6.5722656 L 107.75781 6.5722656 L 107.75781 15.714844 L 119.18555 15.714844 L 119.18555 44.714844 L 105.89453 44.714844 L 97.289062 56.154297 L 99.296875 44.714844 L 86.824219 44.714844 L 86.824219 15.714844 L 98.042969 15.714844 L 98.042969 6.5722656 z M 105.89453 44.714844 L 114.43945 33.357422 L 105.86523 33.357422 L 108.72266 17.074219 L 91.572266 39.871094 L 100.14844 39.871094 L 99.298828 44.714844 L 105.89453 44.714844 z "
           transform="matrix(2.96875,0,0,2.96875,669.75015,435.62319)"
           id="path878-5-1-2-7-6-6-5-6" />
        <rect
           style="opacity:1;fill:#1a1a1a;fill-opacity:1;fill-rule:nonzero;stroke:none;stroke-width:29.54486275;stroke-linejoin:miter;stroke-miterlimit:4;stroke-dasharray:none;stroke-opacity:1"
           id="rect1567-1"
           width="190"
           height="190"
           x="1093.9711"
           y="435.6232" />
        <path
           style="opacity:1;fill:#ffffff;fill-opacity:1;stroke:none;stroke-width:3.70243311"
           d="M 163.4668 0 L 163.4668 9.1425781 L 152.03906 9.1425781 L 152.03906 64 L 197.75195 64 L 197.75195 9.1425781 L 186.32422 9.1425781 L 186.32422 0 L 163.4668 0 z M 170.03906 6.5722656 L 179.75195 6.5722656 L 179.75195 15.714844 L 191.18164 15.714844 L 191.18164 32 L 178.09766 32 L 177.85938 33.355469 L 186.43359 33.355469 L 169.2832 56.154297 L 172.14258 39.869141 L 163.56641 39.869141 L 169.48633 32 L 158.81836 32 L 158.81836 15.714844 L 170.03906 15.714844 L 170.03906 6.5722656 z M 169.48633 32 L 178.09766 32 L 180.7168 17.072266 L 169.48633 32 z "
           transform="matrix(2.96875,0,0,2.96875,669.75015,435.62319)"
           id="path878-5-1-2-7-6-6-5-2" />
        <rect
           style="opacity:1;fill:#1a1a1a;fill-opacity:1;fill-rule:nonzero;stroke:none;stroke-width:29.54486275;stroke-linejoin:miter;stroke-miterlimit:4;stroke-dasharray:none;stroke-opacity:1"
           id="rect1567-9"
           width="190"
           height="190"
           x="1307.1753"
           y="435.6232" />
        <path
           style="opacity:1;fill:#ffffff;fill-opacity:1;stroke:none;stroke-width:3.70243311"
           d="M 235.2832 0 L 235.2832 9.1425781 L 223.85547 9.1425781 L 223.85547 64 L 269.56836 64 L 269.56836 9.1425781 L 258.14062 9.1425781 L 258.14062 0 L 235.2832 0 z M 241.85547 6.5722656 L 251.56836 6.5722656 L 251.56836 15.714844 L 262.99805 15.714844 L 262.99805 19.285156 L 252.14453 19.285156 L 249.67578 33.355469 L 258.25 33.355469 L 241.09961 56.154297 L 243.95898 39.869141 L 235.38281 39.869141 L 250.86914 19.285156 L 230.63477 19.285156 L 230.63477 15.714844 L 241.85547 15.714844 L 241.85547 6.5722656 z M 250.86914 19.285156 L 252.14453 19.285156 L 252.5332 17.072266 L 250.86914 19.285156 z "
           transform="matrix(2.96875,0,0,2.96875,669.75015,435.62319)"
           id="path878-5-1-2-7-6-6-5-3" />
        <rect
           style="opacity:1;fill:#1a1a1a;fill-opacity:1;fill-rule:nonzero;stroke:none;stroke-width:29.54486275;stroke-linejoin:miter;stroke-miterlimit:4;stroke-dasharray:none;stroke-opacity:1"
           id="rect1567-2"
           width="190"
           height="190"
           x="669.75012"
           y="186.53194" />
        <path
           style="opacity:1;fill:#ffffff;fill-opacity:1;stroke:none;stroke-width:3.70243311"
           d="M 20.572266 -83.904297 L 20.572266 -74.761719 L 9.1425781 -74.761719 L 9.1425781 -19.904297 L 54.857422 -19.904297 L 54.857422 -74.761719 L 43.427734 -74.761719 L 43.427734 -83.904297 L 20.572266 -83.904297 z M 27.142578 -77.332031 L 36.857422 -77.332031 L 36.857422 -68.189453 L 48.285156 -68.189453 L 48.285156 -26.476562 L 15.923828 -26.476562 L 15.923828 -68.189453 L 27.142578 -68.189453 L 27.142578 -77.332031 z "
           transform="matrix(2.96875,0,0,2.96875,669.75015,435.62319)"
           id="path878-5-1-2-7-6-6-5-37" />
        <rect
           style="opacity:1;fill:#1a1a1a;fill-opacity:1;fill-rule:nonzero;stroke:none;stroke-width:29.54486275;stroke-linejoin:miter;stroke-miterlimit:4;stroke-dasharray:none;stroke-opacity:1"
           id="rect1567-5-2"
           width="190"
           height="190"
           x="880.23676"
           y="186.53197" />
        <path
           style="opacity:1;fill:#ffffff;fill-opacity:1;stroke:none;stroke-width:3.70243311"
           d="M 91.472656 -83.904297 L 91.472656 -74.761719 L 80.042969 -74.761719 L 80.042969 -19.904297 L 125.75781 -19.904297 L 125.75781 -74.761719 L 114.33008 -74.761719 L 114.33008 -83.904297 L 91.472656 -83.904297 z M 98.042969 -77.332031 L 107.75781 -77.332031 L 107.75781 -68.189453 L 119.18555 -68.189453 L 119.18555 -39.189453 L 86.824219 -39.189453 L 86.824219 -68.189453 L 98.042969 -68.189453 L 98.042969 -77.332031 z "
           transform="matrix(2.96875,0,0,2.96875,669.75015,435.62319)"
           id="path878-5-1-2-7-6-6-5-6-8" />
        <rect
           style="opacity:1;fill:#1a1a1a;fill-opacity:1;fill-rule:nonzero;stroke:none;stroke-width:29.54486275;stroke-linejoin:miter;stroke-miterlimit:4;stroke-dasharray:none;stroke-opacity:1"
           id="rect1567-1-7"
           width="190"
           height="190"
           x="1093.9711"
           y="186.53197" />
        <path
           style="opacity:1;fill:#ffffff;fill-opacity:1;stroke:none;stroke-width:3.70243311"
           d="M 163.4668 -83.904297 L 163.4668 -74.761719 L 152.03906 -74.761719 L 152.03906 -19.904297 L 197.75195 -19.904297 L 197.75195 -74.761719 L 186.32422 -74.761719 L 186.32422 -83.904297 L 163.4668 -83.904297 z M 170.03906 -77.332031 L 179.75195 -77.332031 L 179.75195 -68.189453 L 191.18164 -68.189453 L 191.18164 -51.904297 L 158.81836 -51.904297 L 158.81836 -68.189453 L 170.03906 -68.189453 L 170.03906 -77.332031 z "
           transform="matrix(2.96875,0,0,2.96875,669.75015,435.62319)"
           id="path878-5-1-2-7-6-6-5-2-3" />
        <rect
           style="opacity:1;fill:#1a1a1a;fill-opacity:1;fill-rule:nonzero;stroke:none;stroke-width:29.54486275;stroke-linejoin:miter;stroke-miterlimit:4;stroke-dasharray:none;stroke-opacity:1"
           id="rect1567-9-1"
           width="190"
           height="190"
           x="1307.1753"
           y="186.53197" />
        <path
           style="opacity:1;fill:#ffffff;fill-opacity:1;stroke:none;stroke-width:3.70243311"
           d="M 235.2832 -83.904297 L 235.2832 -74.761719 L 223.85547 -74.761719 L 223.85547 -19.904297 L 269.56836 -19.904297 L 269.56836 -74.761719 L 258.14062 -74.761719 L 258.14062 -83.904297 L 235.2832 -83.904297 z M 241.85547 -77.332031 L 251.56836 -77.332031 L 251.56836 -68.189453 L 262.99805 -68.189453 L 262.99805 -64.619141 L 230.63477 -64.619141 L 230.63477 -68.189453 L 241.85547 -68.189453 L 241.85547 -77.332031 z "
           transform="matrix(2.96875,0,0,2.96875,669.75015,435.62319)"
           id="path878-5-1-2-7-6-6-5-3-2" />
        <rect
           style="opacity:1;fill:#1a1a1a;fill-opacity:1;fill-rule:nonzero;stroke:none;stroke-width:29.54486275;stroke-linejoin:miter;stroke-miterlimit:4;stroke-dasharray:none;stroke-opacity:1"
           id="rect1567-9-8-5"
           width="190"
           height="190"
           x="1517.6274"
           y="186.532" />
        <path
           inkscape:connector-curvature="0"
           style="opacity:1;fill:#ffffff;fill-opacity:1;stroke:none;stroke-width:10.99159813"
           d="m 1578.6991,186.53196 v 27.14286 h -33.9286 v 162.85714 h 135.7143 V 213.67482 h -33.9285 v -27.14286 z"
           id="path878-5-1-2-7-6-6-5-3-7-0" />
        <rect
           style="opacity:1;fill:#1a1a1a;fill-opacity:1;fill-rule:nonzero;stroke:none;stroke-width:29.54486275;stroke-linejoin:miter;stroke-miterlimit:4;stroke-dasharray:none;stroke-opacity:1"
           id="rect1567-15"
           width="190"
           height="190"
           x="1518.2089"
           y="435.62317" />
        <path
           style="opacity:1;fill:#ffffff;fill-opacity:1;stroke:none;stroke-width:3.70243311"
           d="M 306.36914 0 L 306.36914 9.1425781 L 294.93945 9.1425781 L 294.93945 64 L 340.6543 64 L 340.6543 9.1425781 L 329.22461 9.1425781 L 329.22461 0 L 306.36914 0 z M 323.61719 17.072266 L 320.76172 33.355469 L 329.33398 33.355469 L 312.18555 56.154297 L 315.04492 39.869141 L 306.46875 39.869141 L 323.61719 17.072266 z "
           id="path2853"
           transform="matrix(2.96875,0,0,2.96875,669.75015,435.62319)" />
      </g>
    </g>
  </g>
</svg>
