<?xml version="1.0" encoding="UTF-8" standalone="no"?>
<!-- Created with Inkscape (http://www.inkscape.org/) -->

<svg
   xmlns:dc="http://purl.org/dc/elements/1.1/"
   xmlns:cc="http://creativecommons.org/ns#"
   xmlns:rdf="http://www.w3.org/1999/02/22-rdf-syntax-ns#"
   xmlns:svg="http://www.w3.org/2000/svg"
   xmlns="http://www.w3.org/2000/svg"
   xmlns:xlink="http://www.w3.org/1999/xlink"
   xmlns:sodipodi="http://sodipodi.sourceforge.net/DTD/sodipodi-0.dtd"
   xmlns:inkscape="http://www.inkscape.org/namespaces/inkscape"
   width="64"
   height="64"
   id="svg2424"
   sodipodi:version="0.32"
   inkscape:version="0.92.2 2405546, 2018-03-11"
   version="1.0"
   sodipodi:docname="bri-high.svg"
   inkscape:output_extension="org.inkscape.output.svg.inkscape"
   inkscape:export-filename="/home/thayer/archlinux-logo-contest/archer-full-detail.png"
   inkscape:export-xdpi="90"
   inkscape:export-ydpi="90">
  <defs
     id="defs2426">
    <linearGradient
       gradientUnits="userSpaceOnUse"
       id="path1082_2_"
       y2="129.3468"
       x2="112.49853"
       y1="6.1372099"
       x1="112.49854"
       gradientTransform="translate(287,-83)">
      <stop
         id="stop193"
         offset="0"
         style="stop-color:#ffffff;stop-opacity:0" />
      <stop
         id="stop195"
         offset="1"
         style="stop-color:#ffffff;stop-opacity:0.27450982;" />
      <midPointStop
         id="midPointStop197"
         style="stop-color:#FFFFFF"
         offset="0" />
      <midPointStop
         id="midPointStop199"
         style="stop-color:#FFFFFF"
         offset="0.5" />
      <midPointStop
         id="midPointStop201"
         style="stop-color:#000000"
         offset="1" />
    </linearGradient>
    <linearGradient
       id="linearGradient3388">
      <stop
         style="stop-color:#000000;stop-opacity:0;"
         offset="0"
         id="stop3390" />
      <stop
         style="stop-color:#000000;stop-opacity:0.37113401;"
         offset="1"
         id="stop3392" />
    </linearGradient>
    <linearGradient
       inkscape:collect="always"
       id="linearGradient4346">
      <stop
         style="stop-color:#00bdec;stop-opacity:1"
         offset="0"
         id="stop4348" />
      <stop
         style="stop-color:#40bfde;stop-opacity:1"
         offset="1"
         id="stop4350" />
    </linearGradient>
    <linearGradient
       inkscape:collect="always"
       xlink:href="#linearGradient4346"
       id="linearGradient4352"
       x1="400.6142"
       y1="634.15063"
       x2="616.48553"
       y2="666.97791"
       gradientUnits="userSpaceOnUse" />
    <linearGradient
       inkscape:collect="always"
       id="linearGradient5323">
      <stop
         style="stop-color:#6e6e6e;stop-opacity:1"
         offset="0"
         id="stop5325" />
      <stop
         style="stop-color:#4d4d4d;stop-opacity:1"
         offset="1"
         id="stop5327" />
    </linearGradient>
    <linearGradient
       inkscape:collect="always"
       xlink:href="#linearGradient5323"
       id="linearGradient5329"
       x1="291.83591"
       y1="238.08237"
       x2="650.81366"
       y2="348.96875"
       gradientUnits="userSpaceOnUse" />
    <linearGradient
       inkscape:collect="always"
       xlink:href="#path1082_2_"
       id="linearGradient2216"
       gradientUnits="userSpaceOnUse"
       gradientTransform="matrix(-0.3937741,0,0,0.393752,978.34967,416.9815)"
       x1="541.33502"
       y1="104.50665"
       x2="606.91248"
       y2="303.14029" />
  </defs>
  <sodipodi:namedview
     id="base"
     pagecolor="#ffffff"
     bordercolor="#666666"
     borderopacity="1.0"
     gridtolerance="10000"
     guidetolerance="10"
     objecttolerance="10"
     inkscape:pageopacity="0.0"
     inkscape:pageshadow="2"
     inkscape:zoom="6.2421876"
     inkscape:cx="5.1664495"
     inkscape:cy="31.999997"
     inkscape:document-units="px"
     inkscape:current-layer="g2210"
     inkscape:window-width="1920"
     inkscape:window-height="999"
     inkscape:window-x="0"
     inkscape:window-y="32"
     showgrid="false"
     inkscape:window-maximized="1"
     showguides="false" />
  <metadata
     id="metadata2429">
    <rdf:RDF>
      <cc:Work
         rdf:about="">
        <dc:format>image/svg+xml</dc:format>
        <dc:type
           rdf:resource="http://purl.org/dc/dcmitype/StillImage" />
        <dc:title />
      </cc:Work>
    </rdf:RDF>
  </metadata>
  <g
     inkscape:label="Layer 1"
     inkscape:groupmode="layer"
     id="layer1"
     transform="translate(-269.51781,-265.60124)">
    <g
       id="g2424"
       transform="matrix(1.3473684,0,0,1.3473684,-632.88236,-513.34366)">
      <g
         id="g2210"
         transform="matrix(0.25,0,0,0.25,502.3126,469.21738)">
        <g
           id="g935"
           transform="matrix(0.75294104,0,0,0.75294104,211.91904,448.74582)"
           style="fill:#ffffff">
          <path
             id="rect3018-2"
             d="m 727.32312,-17.428459 c -4.9104,0 -8.8657,3.95524 -8.8657,8.8656597 V 21.339241 c 0,4.91042 3.9553,8.85986 8.8657,8.85986 h 13.8116 c 4.9105,0 8.8657,-3.94944 8.8657,-8.85986 V -8.5627993 c 0,-4.9104197 -3.9552,-8.8656597 -8.8657,-8.8656597 z m -71.1514,29.47876 c -2.2658,0 -4.532,0.86735 -6.268,2.60345 l -9.7702,9.7702 c -3.4723,3.47221 -3.4723,9.06381 0,12.53602 l 21.1465,21.14654 c 3.4722,3.47221 9.0638,3.47221 12.536,0 l 9.7702,-9.7702 c 3.4722,-3.47221 3.4722,-9.0638 0,-12.53601 l -21.1465,-21.14655 c -1.7362,-1.7361 -4.0023,-2.60345 -6.268,-2.60345 z m 156.1087,0.0406 c -2.2657,0 -4.5319,0.87315 -6.268,2.60925 l -21.1466,21.14075 c -3.4722,3.47221 -3.4722,9.0638 0,12.53601 l 9.7702,9.7702 c 3.4722,3.47221 9.0638,3.47221 12.536,0 l 21.1466,-21.14654 c 3.4722,-3.47221 3.4722,-9.06381 0,-12.53601 l -9.7702,-9.76441 c -1.7361,-1.7361 -4.0023,-2.60925 -6.268,-2.60925 z m -195.3577,80.88105 c -4.9104,0 -8.8657,3.95524 -8.8657,8.865659 v 13.81165 c 0,4.91043 3.9553,8.86565 8.8657,8.86565 h 29.1424 c 4.9105,0 8.8657,-3.95522 8.8657,-8.86565 v -13.81165 c 0,-4.910419 -3.9552,-8.865659 -8.8657,-8.865659 z m 204.7104,0 c -4.9104,0 -8.8599,3.95524 -8.8599,8.865659 v 13.81165 c 0,4.91043 3.9495,8.86565 8.8599,8.86565 h 29.902 c 4.9105,0 8.8657,-3.95522 8.8657,-8.86565 v -13.81165 c 0,-4.910419 -3.9552,-8.865659 -8.8657,-8.865659 z m -20.1724,64.367359 c -2.2657,0 -4.5319,0.86735 -6.268,2.60347 l -9.7645,9.77019 c -3.4721,3.47222 -3.4721,9.0638 0,12.53602 l 20.6074,20.60731 c 3.4722,3.47219 9.0638,3.47219 12.536,0 l 9.7702,-9.76442 c 3.4722,-3.47219 3.4722,-9.06381 0,-12.536 l -20.6131,-20.6131 c -1.7361,-1.73612 -4.0023,-2.60347 -6.268,-2.60347 z m -134.4693,0.0463 c -2.2657,0 -4.532,0.86735 -6.2681,2.60345 l -20.6072,20.60731 c -3.4723,3.47219 -3.4723,9.0638 0,12.53602 l 9.7644,9.77019 c 3.4722,3.47222 9.0638,3.47222 12.536,0 l 20.6131,-20.60732 c 3.4722,-3.47219 3.4722,-9.0638 0,-12.53599 l -9.7702,-9.77021 c -1.7361,-1.7361 -4.0023,-2.60345 -6.268,-2.60345 z m 60.3317,30.65582 c -4.9104,0 -8.8657,3.95523 -8.8657,8.86567 v 29.14246 c 0,4.91041 3.9553,8.86564 8.8657,8.86564 h 13.8116 c 4.9105,0 8.8657,-3.95523 8.8657,-8.86564 V 196.9071 c 0,-4.91044 -3.9552,-8.86567 -8.8657,-8.86567 z"
             style="color:#353535;fill:#ffffff;fill-opacity:1;stroke-width:15.77148151"
             inkscape:connector-curvature="0" />
          <path
             style="color:#353535;fill:#ffffff;fill-opacity:1;stroke-width:15.77148151"
             inkscape:connector-curvature="0"
             d="M 739.98092,108.74339 V 14.114521 c -51.9828,0 -94.6289,42.64609 -94.6289,94.628869 0,51.98283 42.6461,94.62892 94.6289,94.62892 z"
             id="path3042-9" />
          <path
             id="path3044-1"
             d="m 734.23112,14.114511 c -52.2509,0 -94.6289,42.37799 -94.6289,94.628899 0,52.25094 42.378,94.6289 94.6289,94.6289 52.2509,0 94.6289,-42.37796 94.6289,-94.6289 0,-52.250909 -42.378,-94.628899 -94.6289,-94.628899 z m -8.7671,24.21386 V 179.15844 c -35.1135,-4.31576 -62.2046,-34.18791 -62.2046,-70.41503 0,-36.295209 27.1498,-66.102879 62.2046,-70.415039 z m 41.5045,7.43348 c 22.7355,11.83 38.2343,35.58716 38.2343,62.981559 0,27.43567 -15.5213,51.15788 -38.2343,62.97576 z"
             style="color:#353535;fill:#ffffff;fill-opacity:1;fill-rule:evenodd;stroke-width:15.77148151"
             inkscape:connector-curvature="0" />
        </g>
      </g>
    </g>
  </g>
</svg>
