<?xml version="1.0" encoding="UTF-8" standalone="no"?>
<!-- Created with Inkscape (http://www.inkscape.org/) -->

<svg
   xmlns:dc="http://purl.org/dc/elements/1.1/"
   xmlns:cc="http://creativecommons.org/ns#"
   xmlns:rdf="http://www.w3.org/1999/02/22-rdf-syntax-ns#"
   xmlns:svg="http://www.w3.org/2000/svg"
   xmlns="http://www.w3.org/2000/svg"
   xmlns:sodipodi="http://sodipodi.sourceforge.net/DTD/sodipodi-0.dtd"
   xmlns:inkscape="http://www.inkscape.org/namespaces/inkscape"
   width="64"
   height="64"
   viewBox="0 0 16.933333 16.933334"
   version="1.1"
   id="svg8"
   sodipodi:docname="desktop.svg"
   inkscape:version="0.92.2 2405546, 2018-03-11">
  <defs
     id="defs2" />
  <sodipodi:namedview
     id="base"
     pagecolor="#ffffff"
     bordercolor="#666666"
     borderopacity="1.0"
     inkscape:pageopacity="0.0"
     inkscape:pageshadow="2"
     inkscape:zoom="1.979899"
     inkscape:cx="-2.1503141"
     inkscape:cy="-9.4456968"
     inkscape:document-units="mm"
     inkscape:current-layer="layer1"
     showgrid="false"
     units="px"
     inkscape:window-width="1920"
     inkscape:window-height="1001"
     inkscape:window-x="0"
     inkscape:window-y="36"
     inkscape:window-maximized="1" />
  <metadata
     id="metadata5">
    <rdf:RDF>
      <cc:Work
         rdf:about="">
        <dc:format>image/svg+xml</dc:format>
        <dc:type
           rdf:resource="http://purl.org/dc/dcmitype/StillImage" />
        <dc:title></dc:title>
      </cc:Work>
    </rdf:RDF>
  </metadata>
  <g
     inkscape:label="Layer 1"
     inkscape:groupmode="layer"
     id="layer1"
     transform="translate(0,-280.06665)">
    <path
       id="path37"
       style="fill:#ececec;fill-opacity:1;fill-rule:nonzero;stroke:none;stroke-width:1.05833161"
       d="m 0.72322849,280.04752 c -0.310079,0.032 -0.570439,0.3228 -0.570439,0.63288 v 11.43954 c 0,0.3312 0.30584,0.63288 0.637115,0.63288 H 6.5027795 v 3.16651 h 4.2333245 v -3.16651 h 5.717107 c 0.33128,0 0.632883,-0.3016 0.632883,-0.63288 V 280.6804 c 0,-0.3344 -0.305879,-0.63288 -0.632883,-0.63288 m -13.8112255,2.11667 c 0.0244,-0.004 0.04972,-0.004 0.07832,0 H 14.51541 c 0.22332,0 0.425448,0.202 0.425448,0.42544 v 7.62319 c 0,0.2192 -0.20212,0.4212 -0.425448,0.4212 H 2.7203055 c -0.22332,0 -0.425451,-0.202 -0.425451,-0.4212 v -7.62319 c -0.0044,-0.1988 0.153439,-0.3884 0.347119,-0.42544 m -0.372519,12.69998 v 2.11668 H 14.969434 v -2.11668 m -12.6999795,0"
       inkscape:connector-curvature="0" />
  </g>
</svg>
