<?xml version="1.0" encoding="UTF-8" standalone="no"?>
<!-- Created with Inkscape (http://www.inkscape.org/) -->

<svg
   xmlns:dc="http://purl.org/dc/elements/1.1/"
   xmlns:cc="http://creativecommons.org/ns#"
   xmlns:rdf="http://www.w3.org/1999/02/22-rdf-syntax-ns#"
   xmlns:svg="http://www.w3.org/2000/svg"
   xmlns="http://www.w3.org/2000/svg"
   xmlns:xlink="http://www.w3.org/1999/xlink"
   xmlns:sodipodi="http://sodipodi.sourceforge.net/DTD/sodipodi-0.dtd"
   xmlns:inkscape="http://www.inkscape.org/namespaces/inkscape"
   width="64"
   height="64"
   id="svg2424"
   sodipodi:version="0.32"
   inkscape:version="0.92.2 2405546, 2018-03-11"
   version="1.0"
   sodipodi:docname="desktop8.svg"
   inkscape:output_extension="org.inkscape.output.svg.inkscape"
   inkscape:export-filename="/home/thayer/archlinux-logo-contest/archer-full-detail.png"
   inkscape:export-xdpi="90"
   inkscape:export-ydpi="90">
  <defs
     id="defs2426">
    <linearGradient
       gradientUnits="userSpaceOnUse"
       id="path1082_2_"
       y2="129.3468"
       x2="112.49853"
       y1="6.1372099"
       x1="112.49854"
       gradientTransform="translate(287,-83)">
      <stop
         id="stop193"
         offset="0"
         style="stop-color:#ffffff;stop-opacity:0" />
      <stop
         id="stop195"
         offset="1"
         style="stop-color:#ffffff;stop-opacity:0.27450982;" />
      <midPointStop
         id="midPointStop197"
         style="stop-color:#FFFFFF"
         offset="0" />
      <midPointStop
         id="midPointStop199"
         style="stop-color:#FFFFFF"
         offset="0.5" />
      <midPointStop
         id="midPointStop201"
         style="stop-color:#000000"
         offset="1" />
    </linearGradient>
    <linearGradient
       id="linearGradient3388">
      <stop
         style="stop-color:#000000;stop-opacity:0;"
         offset="0"
         id="stop3390" />
      <stop
         style="stop-color:#000000;stop-opacity:0.37113401;"
         offset="1"
         id="stop3392" />
    </linearGradient>
    <linearGradient
       inkscape:collect="always"
       id="linearGradient4346">
      <stop
         style="stop-color:#00bdec;stop-opacity:1"
         offset="0"
         id="stop4348" />
      <stop
         style="stop-color:#40bfde;stop-opacity:1"
         offset="1"
         id="stop4350" />
    </linearGradient>
    <linearGradient
       inkscape:collect="always"
       xlink:href="#linearGradient4346"
       id="linearGradient4352"
       x1="400.6142"
       y1="634.15063"
       x2="616.48553"
       y2="666.97791"
       gradientUnits="userSpaceOnUse" />
    <linearGradient
       inkscape:collect="always"
       id="linearGradient5323">
      <stop
         style="stop-color:#6e6e6e;stop-opacity:1"
         offset="0"
         id="stop5325" />
      <stop
         style="stop-color:#4d4d4d;stop-opacity:1"
         offset="1"
         id="stop5327" />
    </linearGradient>
    <linearGradient
       inkscape:collect="always"
       xlink:href="#linearGradient5323"
       id="linearGradient5329"
       x1="291.83591"
       y1="238.08237"
       x2="650.81366"
       y2="348.96875"
       gradientUnits="userSpaceOnUse" />
    <linearGradient
       inkscape:collect="always"
       xlink:href="#path1082_2_"
       id="linearGradient2216"
       gradientUnits="userSpaceOnUse"
       gradientTransform="matrix(-0.3937741,0,0,0.393752,978.34967,416.9815)"
       x1="541.33502"
       y1="104.50665"
       x2="606.91248"
       y2="303.14029" />
  </defs>
  <sodipodi:namedview
     id="base"
     pagecolor="#ffffff"
     bordercolor="#666666"
     borderopacity="1.0"
     gridtolerance="10000"
     guidetolerance="10"
     objecttolerance="10"
     inkscape:pageopacity="0.0"
     inkscape:pageshadow="2"
     inkscape:zoom="2.6159699"
     inkscape:cx="273.13004"
     inkscape:cy="32.000007"
     inkscape:document-units="px"
     inkscape:current-layer="g2210"
     inkscape:window-width="1920"
     inkscape:window-height="997"
     inkscape:window-x="0"
     inkscape:window-y="34"
     showgrid="false"
     inkscape:window-maximized="1"
     showguides="true"
     inkscape:guide-bbox="true" />
  <metadata
     id="metadata2429">
    <rdf:RDF>
      <cc:Work
         rdf:about="">
        <dc:format>image/svg+xml</dc:format>
        <dc:type
           rdf:resource="http://purl.org/dc/dcmitype/StillImage" />
        <dc:title></dc:title>
      </cc:Work>
    </rdf:RDF>
  </metadata>
  <g
     inkscape:label="Layer 1"
     inkscape:groupmode="layer"
     id="layer1"
     transform="translate(-269.51781,-265.60124)">
    <g
       id="g2424"
       transform="matrix(1.3473684,0,0,1.3473684,-632.88236,-513.34366)">
      <g
         id="g2210"
         transform="matrix(0.25,0,0,0.25,502.3126,469.21738)">
        <path
           style="fill:#ececec;fill-opacity:1;stroke-width:12.6171875"
           d="m 689.04705,460.85757 v 113.55468 h 50.4687 v 0.10438 h 50.4688 v -0.10438 h 50.46866 V 460.85757 Z m 11.875,11.875 h 127.65616 v 89.80468 H 700.92205 Z m 38.5937,113.55468 v 13.35938 h -12.6172 v 12.61719 h 75.70316 v -12.61719 h -12.61716 v -13.35938 z"
           id="path4-3-3-7"
           inkscape:connector-curvature="0" />
        <g
           aria-label="8"
           style="font-style:normal;font-weight:normal;font-size:76.58049774px;line-height:1.25;font-family:sans-serif;text-align:center;letter-spacing:0px;word-spacing:0px;text-anchor:middle;fill:#ececec;fill-opacity:1;stroke:none;stroke-width:1.91451252"
           id="text879-5-6-3"
           transform="translate(-1431.7098)">
          <path
             d="m 2194.7959,520.53106 q -4.0384,0 -6.2072,2.20617 -2.1688,2.20618 -2.1688,6.31939 0,4.11321 2.1688,6.31939 2.1688,2.16878 6.2072,2.16878 4.0011,0 6.1325,-2.16878 2.1314,-2.20618 2.1314,-6.31939 0,-4.1506 -2.1314,-6.31939 -2.1314,-2.20617 -6.1325,-2.20617 z m -10.5073,-4.74889 q -5.0855,-1.53311 -7.6656,-4.7115 -2.5801,-3.17839 -2.5801,-7.92728 0,-7.06724 5.2724,-10.76913 5.2724,-3.70189 15.4806,-3.70189 10.1335,0 15.4059,3.70189 5.2724,3.6645 5.2724,10.76913 0,4.74889 -2.6175,7.92728 -2.5801,3.17839 -7.6656,4.7115 5.6838,1.5705 8.563,5.12281 2.9166,3.51493 2.9166,8.8995 0,8.3012 -5.5341,12.56398 -5.4967,4.22539 -16.3407,4.22539 -10.8813,0 -16.4528,-4.22539 -5.5341,-4.26278 -5.5341,-12.56398 0,-5.38457 2.8792,-8.8995 2.9166,-3.55231 8.6004,-5.12281 z m 3.3653,-11.18046 q 0,3.32797 1.8323,5.12282 1.8696,1.79486 5.3097,1.79486 3.3654,0 5.1976,-1.79486 1.8323,-1.79485 1.8323,-5.12282 0,-3.32796 -1.8323,-5.08542 -1.8322,-1.79485 -5.1976,-1.79485 -3.4401,0 -5.3097,1.79485 -1.8323,1.79486 -1.8323,5.08542 z"
             style="font-style:normal;font-variant:normal;font-weight:bold;font-stretch:normal;font-family:sans-serif;-inkscape-font-specification:'sans-serif Bold';text-align:center;text-anchor:middle;fill:#ececec;fill-opacity:1;stroke-width:1.91451252"
             id="path1095"
             inkscape:connector-curvature="0" />
        </g>
      </g>
    </g>
  </g>
</svg>
