<?xml version="1.0" encoding="UTF-8" standalone="no"?>
<!-- Created with Inkscape (http://www.inkscape.org/) -->

<svg
   xmlns:dc="http://purl.org/dc/elements/1.1/"
   xmlns:cc="http://creativecommons.org/ns#"
   xmlns:rdf="http://www.w3.org/1999/02/22-rdf-syntax-ns#"
   xmlns:svg="http://www.w3.org/2000/svg"
   xmlns="http://www.w3.org/2000/svg"
   xmlns:sodipodi="http://sodipodi.sourceforge.net/DTD/sodipodi-0.dtd"
   xmlns:inkscape="http://www.inkscape.org/namespaces/inkscape"
   width="64"
   height="64"
   viewBox="0 0 16.933333 16.933334"
   version="1.1"
   id="svg8"
   inkscape:version="0.92.2 2405546, 2018-03-11"
   sodipodi:docname="network.svg">
  <defs
     id="defs2" />
  <sodipodi:namedview
     id="base"
     pagecolor="#ffffff"
     bordercolor="#666666"
     borderopacity="1.0"
     inkscape:pageopacity="0.0"
     inkscape:pageshadow="2"
     inkscape:zoom="5.8796296"
     inkscape:cx="-9.6698161"
     inkscape:cy="26.131015"
     inkscape:document-units="mm"
     inkscape:current-layer="layer1"
     showgrid="false"
     units="px"
     inkscape:window-width="1920"
     inkscape:window-height="997"
     inkscape:window-x="0"
     inkscape:window-y="36"
     inkscape:window-maximized="1" />
  <metadata
     id="metadata5">
    <rdf:RDF>
      <cc:Work
         rdf:about="">
        <dc:format>image/svg+xml</dc:format>
        <dc:type
           rdf:resource="http://purl.org/dc/dcmitype/StillImage" />
        <dc:title />
      </cc:Work>
    </rdf:RDF>
  </metadata>
  <g
     inkscape:label="Layer 1"
     inkscape:groupmode="layer"
     id="layer1"
     transform="translate(0,-280.06665)">
    <path
       style="opacity:1;fill:#ffffff;stroke:none;stroke-width:5.66754675;stroke-linecap:square;stroke-linejoin:miter;stroke-miterlimit:4;stroke-dasharray:none;paint-order:markers stroke fill"
       d="M 31.996094 0 C 30.122035 0 27.925408 2.0460059 26.162109 6.3144531 C 25.750005 7.3120594 25.370562 8.4158369 25.03125 9.6035156 L 38.962891 9.6035156 C 38.623565 8.4158369 38.244147 7.3120594 37.832031 6.3144531 C 36.068731 2.0460059 33.870152 0 31.996094 0 z M 28.460938 0.029296875 A 23.742694 23.742694 0 0 0 12.757812 9.6035156 L 21.736328 9.6035156 C 22.080666 8.5994463 22.461288 7.6457992 22.878906 6.7539062 C 24.281367 3.758744 26.158273 1.2989536 28.460938 0.029296875 z M 35.554688 0.041015625 C 37.847715 1.3143385 39.717376 3.7666177 41.115234 6.7519531 C 41.532857 7.643846 41.913426 8.5974176 42.257812 9.6015625 L 51.207031 9.6015625 A 23.742694 23.742694 0 0 0 35.554688 0.041015625 z M 10.509766 13.443359 A 23.742694 23.742694 0 0 0 8.3515625 21.724609 L 19.644531 21.724609 C 19.745324 18.791053 20.096435 16.001986 20.664062 13.443359 L 10.509766 13.443359 z M 24.136719 13.443359 C 23.662536 15.985016 23.357682 18.779904 23.267578 21.724609 L 40.728516 21.724609 C 40.638412 18.779904 40.331605 15.985016 39.857422 13.443359 L 24.136719 13.443359 z M 43.330078 13.443359 C 43.897846 16.001986 44.248768 18.791053 44.349609 21.724609 L 55.648438 21.724609 A 23.742694 23.742694 0 0 0 53.466797 13.443359 L 43.330078 13.443359 z M 8.3613281 25.566406 A 23.742694 23.742694 0 0 0 10.681641 33.845703 L 20.734375 33.845703 C 20.145641 31.292443 19.775699 28.505367 19.65625 25.566406 L 8.3613281 25.566406 z M 23.273438 25.566406 C 23.374064 28.515042 23.690629 31.308582 24.175781 33.845703 L 39.818359 33.845703 C 40.303511 31.308582 40.620032 28.515042 40.720703 25.566406 L 23.273438 25.566406 z M 44.337891 25.566406 C 44.21842 28.505367 43.848646 31.292443 43.259766 33.845703 L 53.322266 33.845703 A 23.742694 23.742694 0 0 0 55.621094 25.566406 L 44.337891 25.566406 z M 13.029297 37.6875 A 23.742694 23.742694 0 0 0 28.4375 46.929688 C 26.145526 45.656251 24.276608 43.205698 22.878906 40.220703 C 22.505292 39.422769 22.160909 38.575802 21.845703 37.6875 L 13.029297 37.6875 z M 25.09375 37.6875 C 25.417444 38.795242 25.774346 39.828895 26.162109 40.767578 C 27.319875 43.570176 28.662984 45.395953 29.980469 46.332031 L 29.980469 53.951172 A 5.2299211 5.2299211 0 0 0 27.177734 56.75 L 0 56.75 L 0 60.791016 L 27.181641 60.791016 A 5.2299211 5.2299211 0 0 0 32 64 A 5.2299211 5.2299211 0 0 0 36.822266 60.791016 L 64 60.791016 L 64 56.75 L 36.818359 56.75 A 5.2299211 5.2299211 0 0 0 34.019531 53.947266 L 34.019531 46.326172 C 35.33532 45.388275 36.676667 43.56436 37.832031 40.767578 C 38.219796 39.828895 38.576708 38.795242 38.900391 37.6875 L 25.09375 37.6875 z M 42.148438 37.6875 C 41.833187 38.575802 41.488841 39.422769 41.115234 40.220703 C 39.712674 43.216054 37.834833 45.67374 35.53125 46.943359 A 23.742694 23.742694 0 0 0 50.982422 37.6875 L 42.148438 37.6875 z "
       transform="matrix(0.26458333,0,0,0.26458333,0,280.06665)"
       id="path4550" />
  </g>
</svg>
