<?xml version="1.0" encoding="UTF-8" standalone="no"?>
<!-- Created with Inkscape (http://www.inkscape.org/) -->

<svg
   xmlns:dc="http://purl.org/dc/elements/1.1/"
   xmlns:cc="http://creativecommons.org/ns#"
   xmlns:rdf="http://www.w3.org/1999/02/22-rdf-syntax-ns#"
   xmlns:svg="http://www.w3.org/2000/svg"
   xmlns="http://www.w3.org/2000/svg"
   xmlns:xlink="http://www.w3.org/1999/xlink"
   xmlns:sodipodi="http://sodipodi.sourceforge.net/DTD/sodipodi-0.dtd"
   xmlns:inkscape="http://www.inkscape.org/namespaces/inkscape"
   width="64"
   height="64"
   id="svg2424"
   sodipodi:version="0.32"
   inkscape:version="0.92.2 2405546, 2018-03-11"
   version="1.0"
   sodipodi:docname="no-bumblebee.svg"
   inkscape:output_extension="org.inkscape.output.svg.inkscape"
   inkscape:export-filename="/home/thayer/archlinux-logo-contest/archer-full-detail.png"
   inkscape:export-xdpi="90"
   inkscape:export-ydpi="90">
  <defs
     id="defs2426">
    <linearGradient
       gradientUnits="userSpaceOnUse"
       id="path1082_2_"
       y2="129.3468"
       x2="112.49853"
       y1="6.1372099"
       x1="112.49854"
       gradientTransform="translate(287,-83)">
      <stop
         id="stop193"
         offset="0"
         style="stop-color:#ffffff;stop-opacity:0" />
      <stop
         id="stop195"
         offset="1"
         style="stop-color:#ffffff;stop-opacity:0.27450982;" />
      <midPointStop
         id="midPointStop197"
         style="stop-color:#FFFFFF"
         offset="0" />
      <midPointStop
         id="midPointStop199"
         style="stop-color:#FFFFFF"
         offset="0.5" />
      <midPointStop
         id="midPointStop201"
         style="stop-color:#000000"
         offset="1" />
    </linearGradient>
    <linearGradient
       id="linearGradient3388">
      <stop
         style="stop-color:#000000;stop-opacity:0;"
         offset="0"
         id="stop3390" />
      <stop
         style="stop-color:#000000;stop-opacity:0.37113401;"
         offset="1"
         id="stop3392" />
    </linearGradient>
    <linearGradient
       inkscape:collect="always"
       id="linearGradient4346">
      <stop
         style="stop-color:#00bdec;stop-opacity:1"
         offset="0"
         id="stop4348" />
      <stop
         style="stop-color:#40bfde;stop-opacity:1"
         offset="1"
         id="stop4350" />
    </linearGradient>
    <linearGradient
       inkscape:collect="always"
       xlink:href="#linearGradient4346"
       id="linearGradient4352"
       x1="400.6142"
       y1="634.15063"
       x2="616.48553"
       y2="666.97791"
       gradientUnits="userSpaceOnUse" />
    <linearGradient
       inkscape:collect="always"
       id="linearGradient5323">
      <stop
         style="stop-color:#6e6e6e;stop-opacity:1"
         offset="0"
         id="stop5325" />
      <stop
         style="stop-color:#4d4d4d;stop-opacity:1"
         offset="1"
         id="stop5327" />
    </linearGradient>
    <linearGradient
       inkscape:collect="always"
       xlink:href="#linearGradient5323"
       id="linearGradient5329"
       x1="291.83591"
       y1="238.08237"
       x2="650.81366"
       y2="348.96875"
       gradientUnits="userSpaceOnUse" />
    <linearGradient
       inkscape:collect="always"
       xlink:href="#path1082_2_"
       id="linearGradient2216"
       gradientUnits="userSpaceOnUse"
       gradientTransform="matrix(-0.3937741,0,0,0.393752,978.34967,416.9815)"
       x1="541.33502"
       y1="104.50665"
       x2="606.91248"
       y2="303.14029" />
  </defs>
  <sodipodi:namedview
     id="base"
     pagecolor="#ffffff"
     bordercolor="#666666"
     borderopacity="1.0"
     gridtolerance="10000"
     guidetolerance="10"
     objecttolerance="10"
     inkscape:pageopacity="0.0"
     inkscape:pageshadow="2"
     inkscape:zoom="2.8284271"
     inkscape:cx="32.217397"
     inkscape:cy="31.975159"
     inkscape:document-units="px"
     inkscape:current-layer="g2210"
     inkscape:window-width="1246"
     inkscape:window-height="723"
     inkscape:window-x="0"
     inkscape:window-y="30"
     showgrid="false"
     inkscape:window-maximized="0" />
  <metadata
     id="metadata2429">
    <rdf:RDF>
      <cc:Work
         rdf:about="">
        <dc:format>image/svg+xml</dc:format>
        <dc:type
           rdf:resource="http://purl.org/dc/dcmitype/StillImage" />
        <dc:title></dc:title>
      </cc:Work>
    </rdf:RDF>
  </metadata>
  <g
     inkscape:label="Layer 1"
     inkscape:groupmode="layer"
     id="layer1"
     transform="translate(-269.51781,-265.60124)">
    <g
       id="g2424"
       transform="matrix(1.3473684,0,0,1.3473684,-632.88236,-513.34366)">
      <g
         id="g2210"
         transform="matrix(0.25,0,0,0.25,502.3126,469.21738)">
        <path
           style="fill:#b3b3b3;stroke-width:0.30708203"
           d="m 761.62519,585.06798 c -7.0662,-8.88004 -11.94056,-16.60589 -13.56202,-21.49625 -1.94693,-5.87203 3.12722,-13.10029 10.53222,-15.00327 2.40328,-0.61762 7.86075,-0.61328 10.59412,0.008 2.15065,0.4892 4.9943,1.98336 6.57971,3.45722 1.47963,1.3756 3.15574,4.22439 3.72691,6.33437 0.79627,2.94195 0.51833,5.00267 -1.12614,8.34895 -2.04126,4.15352 -9.41825,14.94617 -13.69744,20.03957 l -0.87472,1.04123 -2.17264,-2.73019 z"
           id="path861"
           inkscape:connector-curvature="0" />
        <path
           style="fill:#b3b3b3;stroke-width:0.24211448"
           d="m 711.93415,571.90452 c -2.75995,-0.72307 -4.51669,-1.77572 -6.8432,-4.10058 -2.96224,-2.96009 -3.84098,-4.98301 -3.85274,-8.86896 -0.0325,-10.78067 12.87676,-23.67545 27.59514,-27.56402 8.41281,-2.22267 15.8491,-0.68839 21.86915,4.5121 l 0.92623,0.80017 -0.76229,2.37961 c -4.31007,13.45514 -13.64452,25.1414 -24.37991,30.52232 -5.2367,2.62486 -10.30376,3.43243 -14.55238,2.31936 z"
           id="path859" />
        <path
           style="fill:#b3b3b3;stroke-width:0.24211448"
           d="m 811.1523,572.03298 c -12.62586,-2.53246 -25.70633,-16.20281 -31.03759,-32.43739 l -0.95673,-2.91336 0.92553,-0.79963 c 4.28639,-3.70344 8.93488,-5.43798 14.60503,-5.44964 4.93995,-0.0103 9.35346,1.1263 14.90085,3.83687 11.80576,5.76851 19.96355,15.91134 19.96355,24.82122 0,3.72803 -1.07939,6.11612 -4.12054,9.11646 -3.52696,3.47953 -8.86939,4.91072 -14.2801,3.82547 z"
           id="path857" />
        <path
           style="fill:#b3b3b3;stroke-width:0.24211448"
           d="m 761.15682,544.27779 c -2.53293,-0.87087 -4.28251,-2.47729 -5.3719,-4.93228 -0.37064,-0.83545 -0.44113,-1.89973 -0.51289,-7.74767 l -0.0831,-6.77922 1.65177,-0.56619 c 3.46241,-1.18689 9.77693,-3.77702 13.08783,-5.36842 6.109,-2.93635 9.83419,-5.80182 11.07991,-8.52287 1.58754,-3.46762 0.72792,-7.66234 -2.22351,-10.85024 -1.66372,-1.79702 -3.48102,-2.91207 -6.26303,-3.84286 -5.88392,-1.96865 -14.32286,-1.39307 -21.77713,1.48531 l -2.17907,0.84141 -0.12973,3.12207 c -0.0713,1.71713 -0.28377,3.60011 -0.47194,4.1844 -0.49975,1.55091 -2.38317,3.4889 -4.31499,4.43993 -1.4773,0.72728 -1.80043,0.79271 -3.91542,0.79271 -1.98473,0 -2.49429,-0.0887 -3.66589,-0.63801 -1.63703,-0.76761 -3.18014,-2.11365 -3.96381,-3.45769 -0.94769,-1.62537 -1.11489,-3.51354 -1.0398,-11.74691 l 0.0697,-7.6107 3.14752,-1.43037 c 9.16614,-4.16552 16.14767,-6.47349 22.04869,-7.2889 20.33341,-2.8097 36.65755,4.99582 41.46071,19.82474 1.15591,3.56859 1.37917,5.18236 1.35652,9.80563 -0.0175,3.55599 -0.10565,4.54833 -0.54861,6.17393 -2.29685,8.42812 -8.71646,14.36257 -22.14136,20.46791 -1.97094,0.89635 -3.65217,1.69832 -3.73597,1.78212 -0.0838,0.0838 -0.35219,0.9391 -0.59636,1.9007 -0.50093,1.97257 -1.68258,3.93044 -2.96021,4.90494 -1.96873,1.50163 -5.39732,1.95399 -8.00755,1.05653 z"
           id="path853" />
      </g>
    </g>
  </g>
</svg>
