<?xml version="1.0" encoding="UTF-8" standalone="no"?>
<!-- Created with Inkscape (http://www.inkscape.org/) -->

<svg
   xmlns:dc="http://purl.org/dc/elements/1.1/"
   xmlns:cc="http://creativecommons.org/ns#"
   xmlns:rdf="http://www.w3.org/1999/02/22-rdf-syntax-ns#"
   xmlns:svg="http://www.w3.org/2000/svg"
   xmlns="http://www.w3.org/2000/svg"
   xmlns:xlink="http://www.w3.org/1999/xlink"
   xmlns:sodipodi="http://sodipodi.sourceforge.net/DTD/sodipodi-0.dtd"
   xmlns:inkscape="http://www.inkscape.org/namespaces/inkscape"
   width="64"
   height="64"
   id="svg2424"
   sodipodi:version="0.32"
   inkscape:version="0.92.2 2405546, 2018-03-11"
   version="1.0"
   sodipodi:docname="vol-medium.svg"
   inkscape:output_extension="org.inkscape.output.svg.inkscape"
   inkscape:export-filename="/home/thayer/archlinux-logo-contest/archer-full-detail.png"
   inkscape:export-xdpi="90"
   inkscape:export-ydpi="90">
  <defs
     id="defs2426">
    <linearGradient
       gradientUnits="userSpaceOnUse"
       id="path1082_2_"
       y2="129.3468"
       x2="112.49853"
       y1="6.1372099"
       x1="112.49854"
       gradientTransform="translate(287,-83)">
      <stop
         id="stop193"
         offset="0"
         style="stop-color:#ffffff;stop-opacity:0" />
      <stop
         id="stop195"
         offset="1"
         style="stop-color:#ffffff;stop-opacity:0.27450982;" />
      <midPointStop
         id="midPointStop197"
         style="stop-color:#FFFFFF"
         offset="0" />
      <midPointStop
         id="midPointStop199"
         style="stop-color:#FFFFFF"
         offset="0.5" />
      <midPointStop
         id="midPointStop201"
         style="stop-color:#000000"
         offset="1" />
    </linearGradient>
    <linearGradient
       id="linearGradient3388">
      <stop
         style="stop-color:#000000;stop-opacity:0;"
         offset="0"
         id="stop3390" />
      <stop
         style="stop-color:#000000;stop-opacity:0.37113401;"
         offset="1"
         id="stop3392" />
    </linearGradient>
    <linearGradient
       inkscape:collect="always"
       id="linearGradient4346">
      <stop
         style="stop-color:#00bdec;stop-opacity:1"
         offset="0"
         id="stop4348" />
      <stop
         style="stop-color:#40bfde;stop-opacity:1"
         offset="1"
         id="stop4350" />
    </linearGradient>
    <linearGradient
       inkscape:collect="always"
       xlink:href="#linearGradient4346"
       id="linearGradient4352"
       x1="400.6142"
       y1="634.15063"
       x2="616.48553"
       y2="666.97791"
       gradientUnits="userSpaceOnUse" />
    <linearGradient
       inkscape:collect="always"
       id="linearGradient5323">
      <stop
         style="stop-color:#6e6e6e;stop-opacity:1"
         offset="0"
         id="stop5325" />
      <stop
         style="stop-color:#4d4d4d;stop-opacity:1"
         offset="1"
         id="stop5327" />
    </linearGradient>
    <linearGradient
       inkscape:collect="always"
       xlink:href="#linearGradient5323"
       id="linearGradient5329"
       x1="291.83591"
       y1="238.08237"
       x2="650.81366"
       y2="348.96875"
       gradientUnits="userSpaceOnUse" />
    <linearGradient
       inkscape:collect="always"
       xlink:href="#path1082_2_"
       id="linearGradient2216"
       gradientUnits="userSpaceOnUse"
       gradientTransform="matrix(-0.3937741,0,0,0.393752,978.34967,416.9815)"
       x1="541.33502"
       y1="104.50665"
       x2="606.91248"
       y2="303.14029" />
  </defs>
  <sodipodi:namedview
     id="base"
     pagecolor="#ffffff"
     bordercolor="#666666"
     borderopacity="1.0"
     gridtolerance="10000"
     guidetolerance="10"
     objecttolerance="10"
     inkscape:pageopacity="0.0"
     inkscape:pageshadow="2"
     inkscape:zoom="8.8295817"
     inkscape:cx="32.55801"
     inkscape:cy="31.443858"
     inkscape:document-units="px"
     inkscape:current-layer="g2210"
     inkscape:window-width="1539"
     inkscape:window-height="1009"
     inkscape:window-x="70"
     inkscape:window-y="46"
     showgrid="false"
     inkscape:window-maximized="0"
     showguides="true"
     inkscape:guide-bbox="true">
    <sodipodi:guide
       position="-9.1314141,0"
       orientation="0,1"
       id="guide1583"
       inkscape:locked="false" />
    <sodipodi:guide
       position="-20.025031,64.080099"
       orientation="0,1"
       id="guide1585"
       inkscape:locked="false" />
  </sodipodi:namedview>
  <metadata
     id="metadata2429">
    <rdf:RDF>
      <cc:Work
         rdf:about="">
        <dc:format>image/svg+xml</dc:format>
        <dc:type
           rdf:resource="http://purl.org/dc/dcmitype/StillImage" />
        <dc:title></dc:title>
      </cc:Work>
    </rdf:RDF>
  </metadata>
  <g
     inkscape:label="Layer 1"
     inkscape:groupmode="layer"
     id="layer1"
     transform="translate(-269.51781,-265.60124)">
    <g
       id="g2424"
       transform="matrix(1.3473684,0,0,1.3473684,-632.88236,-513.34366)">
      <g
         id="g2210"
         transform="matrix(0.25,0,0,0.25,502.3126,469.21738)">
        <path
           id="path1656"
           style="fill:#ececec;fill-opacity:1;stroke-width:0.23546851"
           d="m 788.91588,545.33745 -4.36884,-2.8032 1.11892,-2.2783 c 3.04558,-6.2015 3.01677,-13.3346 -0.0787,-19.4931 -0.51267,-1.02 -0.84478,-1.9418 -0.73802,-2.0485 0.10676,-0.1066 2.10117,-1.4099 4.43202,-2.896 l 4.23792,-2.7021 0.69316,1.1008 c 0.9756,1.5492 2.39378,4.8954 3.09416,7.3006 1.96053,6.7327 1.61784,14.3372 -0.94638,21 -0.8252,2.1443 -2.6606,5.6615 -2.94077,5.6355 -0.074,-0.01 -2.10058,-1.2739 -4.50344,-2.8157 z m -99.82598,-14.7142 v -28.374 h 9.41874 9.41874 v 28.374 28.3739 h -9.41874 -9.41874 z m 104.79941,40.4756 c -1.58152,-2.2801 -2.91866,-4.2669 -2.97142,-4.415 -0.0528,-0.1482 0.45818,-0.6384 1.13544,-1.0893 1.88917,-1.258 7.39832,-6.9119 9.18163,-9.423 3.20227,-4.5092 6.10402,-11.2054 7.24469,-16.7183 2.86792,-13.8606 -1.34872,-28.6904 -11.07424,-38.9477 -1.65166,-1.7419 -5.35417,-4.9989 -6.25737,-5.5044 -0.34891,-0.1952 -0.005,-0.7957 2.60933,-4.5532 1.65619,-2.3805 3.04359,-4.3674 3.08312,-4.4153 0.15948,-0.1932 4.36503,3.2793 6.62669,5.4716 8.67148,8.4056 13.97162,18.7153 15.99491,31.113 0.59858,3.6678 0.5957,12.3749 -0.005,16.0119 -2.06772,12.5132 -7.26662,22.6404 -15.96166,31.0923 -2.22061,2.1586 -6.26042,5.5231 -6.6316,5.5231 -0.0543,0 -1.39271,-1.8656 -2.97423,-4.1457 z m -52.81973,11.5809 -23.48799,-23.5742 v -28.4866 -28.4865 l 23.60528,-23.6062 23.60527,-23.6062 h 4.76868 4.76868 v 75.7032 75.7031 l -4.88598,-0.036 -4.88596,-0.036 z" />
      </g>
    </g>
  </g>
</svg>
